<svg version="1.2" baseProfile="tiny-ps" xmlns="http://www.w3.org/2000/svg" viewBox="0 0 512 512" width="512" height="512">
	<title>newsletter-svg</title>
	<style>
		tspan { white-space:pre }
		.shp0 { fill: #06abe9 } 
	</style>
	<path id="Layer" class="shp0" d="M84.56 214.4L99.44 208.53L111.19 238.29L96.3 244.17L84.56 214.4Z" />
	<path id="Layer" fill-rule="evenodd" class="shp0" d="M512 207.34L512 511.34L0 511.34L0 203.46L256 1.14L286.27 25.06L276.35 37.62L256 21.53L16 211.21L16 242.46L256 366.34L496 242.46L496 207.34L512 207.34ZM16 490.21L238.56 375.34L16 260.47L16 490.21ZM471.05 495.34L256 384.34L40.95 495.34L471.05 495.34ZM496 260.47L273.44 375.34L496 490.21L496 260.47Z" />
	<path id="Layer" fill-rule="evenodd" class="shp0" d="M187.37 148.02C229.89 131.82 264.43 99.7 283.66 58.46L291.48 41.35L365.64 229.31L348.24 222.11C306.03 205.13 258.86 205.25 216.73 222.45L209.3 225.38L235.7 292.36L191.05 309.96L164.65 242.98L134.88 254.73L105.51 180.33L187.37 148.02ZM203.41 210.49L185.82 165.84L126.29 189.34L143.89 233.98L203.41 210.49ZM194.41 231.26L179.53 237.13L200.09 289.21L214.97 283.34L194.41 231.26ZM289.94 81.11C269.23 116.12 237.93 143.64 200.54 159.69L218.4 204.94C256.66 191.12 298.33 189.84 337.37 201.29L289.94 81.11Z" />
	<path id="Layer" class="shp0" d="M463.1 93.94C477.25 129.43 476.6 169.12 461.3 204.14L475.98 210.54C511.12 129.46 473.95 35.25 392.92 0L386.52 14.67C421.61 29.8 449.18 58.35 463.1 93.94Z" />
	<path id="Layer" class="shp0" d="M418.47 111.54C427.9 135.2 427.47 161.65 417.28 184.99L432 191.34C456.53 134.59 430.5 68.69 373.81 44.02L367.41 58.7C390.8 68.79 409.19 87.82 418.47 111.54L418.47 111.54Z" />
	<path id="Layer" class="shp0" d="M374.25 166.88C384.77 142.55 373.6 114.3 349.3 103.73L355.7 89.05C388.11 103.16 402.98 140.84 388.93 173.28L374.25 166.88L374.25 166.88Z" />
</svg>