<svg id="Layer_1" height="512" viewBox="0 0 512 512" width="512" xmlns="http://www.w3.org/2000/svg" data-name="Layer 1"><path d="m105.751 245.339a105.667 105.667 0 1 0 -74.776-30.923 105.44 105.44 0 0 0 74.776 30.923zm-29.522-135.222a41.749 41.749 0 1 1 -12.229 29.522 41.473 41.473 0 0 1 12.229-29.522zm330.021 156.494a105.752 105.752 0 1 0 74.776 30.974 105.052 105.052 0 0 0 -74.776-30.974zm29.521 135.272a41.75 41.75 0 0 1 -59.043-59.043 41.75 41.75 0 1 1 59.042 59.044zm32.968-358.622a32 32 0 0 1 0 45.255l-380.222 380.223a32 32 0 0 1 -45.254-45.255l380.222-380.223a32 32 0 0 1 45.254 0z"/></svg>